<svg xmlns="http://www.w3.org/2000/svg" width="334pt" height="302pt" viewBox="0 0 334 302" version="1.1">
<path fill="#ffffff" d=" M 0.00 0.00 L 334.00 0.00 L 334.00 302.00 L 0.00 302.00 L 0.00 0.00 Z" fill-opacity="0"/>
<path fill="#3ab54991" d=" M 142.86 9.36 C 167.27 12.24 191.71 14.81 216.11 17.78 C 210.62 29.12 203.95 39.88 197.81 50.89 C 189.69 48.67 181.89 45.42 173.81 43.07 C 172.33 42.46 170.80 42.94 169.36 43.41 C 135.04 55.20 100.62 66.69 66.30 78.49 C 69.37 112.01 72.70 145.51 75.72 179.04 C 76.28 183.13 76.76 187.27 76.25 191.41 C 71.03 182.34 66.58 172.86 61.54 163.70 C 56.60 166.80 52.12 170.54 47.47 174.04 C 40.30 135.19 32.93 96.36 25.56 57.54 C 40.59 53.33 55.83 49.92 70.94 46.02 C 97.62 39.55 124.18 32.62 150.87 26.21 C 148.48 20.46 145.21 15.13 142.86 9.36 Z"/>
<path fill="#3ab54959" d=" M 220.21 29.01 C 249.04 43.29 277.61 58.09 306.28 72.70 C 306.47 77.94 306.64 83.17 306.82 88.40 C 311.84 88.65 316.85 89.18 321.87 89.53 C 317.36 94.46 312.76 99.32 308.38 104.37 C 304.83 108.24 301.31 112.15 297.90 116.15 C 294.30 111.34 291.03 106.30 287.72 101.29 C 285.07 97.08 281.78 93.23 279.84 88.60 C 283.30 88.54 286.76 88.55 290.23 88.52 C 290.09 86.75 289.96 84.99 289.81 83.22 C 261.92 73.80 234.31 63.54 206.41 54.14 C 206.40 53.63 206.38 52.62 206.37 52.12 C 211.14 44.51 215.58 36.70 220.21 29.01 Z"/>
<path fill="#e68c1a" d=" M 144.09 61.12 C 153.67 57.57 163.20 53.78 172.87 50.52 C 185.10 54.31 197.06 59.02 209.23 63.04 L 208.24 63.47 C 198.80 67.64 189.34 71.78 179.85 75.85 C 177.32 77.25 174.66 75.82 172.35 74.71 C 163.01 70.03 153.37 65.93 144.09 61.12 Z"/>
<path fill="#c0723a" d=" M 125.52 67.95 C 131.71 65.67 137.89 63.37 144.09 61.12 C 153.37 65.93 163.01 70.03 172.35 74.71 C 174.66 75.82 177.32 77.25 179.85 75.85 C 189.34 71.78 198.80 67.64 208.24 63.47 C 209.48 63.14 210.72 63.60 211.90 63.97 C 218.85 66.47 225.83 68.88 232.80 71.36 C 221.09 76.72 208.81 80.70 197.08 86.03 C 209.10 92.00 221.33 97.52 233.50 103.15 C 226.97 105.84 220.86 109.83 214.06 111.71 C 202.11 106.57 190.56 100.55 178.73 95.15 C 175.95 93.59 172.98 95.33 170.34 96.32 C 158.99 101.21 147.30 105.27 136.01 110.29 L 135.77 110.40 C 130.01 107.80 124.19 105.30 118.47 102.60 C 131.32 96.37 144.77 91.47 157.60 85.20 C 149.60 81.18 141.47 77.43 133.34 73.69 C 130.46 72.35 127.60 70.91 125.06 69.00 C 125.18 68.74 125.41 68.21 125.52 67.95 Z"/>
<path fill="#e68c1a" d=" M 80.14 84.71 C 94.89 79.47 109.57 73.97 124.18 68.36 L 125.06 69.00 C 127.60 70.91 130.46 72.35 133.34 73.69 C 141.47 77.43 149.60 81.18 157.60 85.20 C 144.77 91.47 131.32 96.37 118.47 102.60 L 118.19 102.73 C 105.75 97.03 93.24 91.45 80.62 86.17 C 80.50 85.80 80.26 85.07 80.14 84.71 Z"/>
<path fill="#e68c1a" d=" M 197.08 86.03 C 208.81 80.70 221.09 76.72 232.80 71.36 C 245.93 75.88 258.96 80.70 272.16 85.02 C 259.63 91.74 246.23 96.77 233.50 103.15 C 221.33 97.52 209.10 92.00 197.08 86.03 Z"/>
<path fill="#fba81a" d=" M 235.62 110.50 C 249.28 104.52 262.20 96.93 275.85 90.94 C 274.08 108.73 270.43 126.29 267.98 144.00 C 264.72 164.72 261.46 185.44 258.18 206.16 C 250.07 210.43 241.77 214.33 233.49 218.28 C 233.39 207.19 233.59 196.10 233.74 185.01 C 234.86 170.01 234.36 154.96 234.91 139.94 C 235.45 130.13 235.37 120.31 235.62 110.50 Z"/>
<path fill="#dd9326" d=" M 74.44 92.16 C 88.05 97.95 100.89 105.45 114.53 111.16 L 114.51 111.78 C 114.09 122.42 114.60 133.07 115.33 143.68 C 115.62 168.24 117.26 192.76 117.59 217.32 C 107.75 212.10 97.64 207.42 87.80 202.19 C 86.78 201.42 84.99 201.01 84.81 199.54 C 81.38 163.75 77.85 127.96 74.44 92.16 Z"/>
<path fill="#e68c1a" d=" M 170.34 96.32 C 172.98 95.33 175.95 93.59 178.73 95.15 C 190.56 100.55 202.11 106.57 214.06 111.71 C 201.74 117.36 189.49 123.28 176.96 128.42 C 163.25 122.54 149.57 116.53 136.01 110.29 C 147.30 105.27 158.99 101.21 170.34 96.32 Z"/>
<path fill="#3ab549" d=" M 287.72 101.29 C 291.03 106.30 294.30 111.34 297.90 116.15 C 301.31 112.15 304.83 108.24 308.38 104.37 C 308.27 111.29 308.70 118.18 309.39 125.05 C 309.64 139.72 310.97 154.34 311.50 169.00 C 312.04 183.03 313.24 197.01 313.63 211.04 C 314.28 216.84 314.62 222.67 314.60 228.51 C 275.15 243.06 235.73 257.70 196.20 272.03 C 199.41 277.58 203.68 282.41 207.30 287.69 C 185.88 287.60 164.47 287.13 143.05 287.12 C 145.26 272.01 149.07 257.17 151.81 242.15 C 160.07 246.53 167.70 251.99 175.87 256.54 C 206.72 241.95 237.56 227.37 268.40 212.76 C 274.97 175.63 281.29 138.45 287.72 101.29 Z"/>
<path fill="#c1733b" d=" M 221.01 118.29 C 225.76 115.50 230.75 113.10 235.62 110.50 C 235.37 120.31 235.45 130.13 234.91 139.94 C 234.36 154.96 234.86 170.01 233.74 185.01 C 233.59 196.10 233.39 207.19 233.49 218.28 C 233.50 218.47 233.50 218.86 233.51 219.06 C 228.19 221.34 222.92 223.74 217.55 225.91 C 217.48 190.91 217.78 155.90 217.64 120.90 C 218.75 120.02 219.86 119.13 221.01 118.29 Z"/>
<path fill="#c2733b" d=" M 114.51 111.78 C 119.94 113.88 125.11 116.56 130.30 119.18 C 129.99 133.83 131.42 148.41 131.70 163.03 C 132.81 183.78 133.64 204.54 134.37 225.30 C 128.54 223.16 123.17 220.00 117.59 217.32 C 117.26 192.76 115.62 168.24 115.33 143.68 C 114.60 133.07 114.09 122.42 114.51 111.78 Z"/>
<path fill="#fba81a" d=" M 181.35 137.82 C 194.68 131.53 207.62 124.43 221.01 118.29 C 219.86 119.13 218.75 120.02 217.64 120.90 C 217.78 155.90 217.48 190.91 217.55 225.91 L 217.56 226.24 C 205.44 232.06 193.35 237.94 181.31 243.93 C 181.20 208.56 181.13 173.19 181.35 137.82 Z"/>
<path fill="#dd9326" d=" M 130.30 119.18 C 144.03 125.73 157.61 132.60 171.40 139.03 C 171.90 167.34 170.51 195.63 170.66 223.95 C 170.56 230.60 170.37 237.26 170.39 243.91 C 158.31 238.09 146.49 231.71 134.39 225.94 L 134.37 225.30 C 133.64 204.54 132.81 183.78 131.70 163.03 C 131.42 148.41 129.99 133.83 130.30 119.18 Z"/>
<path fill="#3ab549db" d=" M 47.47 174.04 C 52.12 170.54 56.60 166.80 61.54 163.70 C 66.58 172.86 71.03 182.34 76.25 191.41 C 77.54 193.68 78.47 196.15 79.12 198.69 C 75.35 197.28 71.60 195.84 67.76 194.62 C 67.64 197.79 67.65 201.00 68.56 204.07 C 94.49 217.24 119.85 231.54 145.69 244.90 C 144.40 254.53 141.99 263.96 140.10 273.49 C 116.10 258.22 91.85 243.34 67.77 228.20 C 60.59 223.85 53.60 219.17 46.30 215.03 C 47.11 207.84 49.15 200.87 50.76 193.84 C 43.55 191.78 36.22 190.18 28.99 188.19 C 35.03 183.32 41.32 178.76 47.47 174.04 Z"/>
</svg>